<svg width="519" height="83" viewBox="0 0 519 83" fill="none" xmlns="http://www.w3.org/2000/svg">
<path d="M52.2 70.5H27.2L21.4 82H0.8L38.9 11.5H61.5L74.7 82H54L52.2 70.5ZM49.9 55.6L46.4 32.7L34.8 55.6H49.9ZM164.288 25.4C170.355 25.4 175.022 27 178.288 30.2C181.622 33.4 183.288 37.8333 183.288 43.5C183.288 45.7 183.122 47.6333 182.788 49.3L176.988 82H157.488L162.788 51.9C162.922 50.8333 162.988 50.1 162.988 49.7C162.988 47.3667 162.288 45.5667 160.888 44.3C159.555 43.0333 157.655 42.4 155.188 42.4C152.522 42.4 150.222 43.1333 148.288 44.6C146.422 46 145.155 48 144.488 50.6L138.888 82H119.288L124.588 51.9C124.722 51.3667 124.788 50.5667 124.788 49.5C124.788 47.2333 124.088 45.5 122.688 44.3C121.355 43.0333 119.488 42.4 117.088 42.4C114.288 42.4 111.922 43.2 109.988 44.8C108.055 46.3333 106.755 48.5333 106.088 51.4L100.688 82H80.9883L90.9883 25.9H110.588L109.288 33.2C111.355 30.8 113.888 28.9 116.888 27.5C119.955 26.1 123.322 25.4 126.988 25.4C131.122 25.4 134.622 26.3 137.488 28.1C140.422 29.9 142.522 32.4333 143.788 35.7C146.322 32.6333 149.388 30.1667 152.988 28.3C156.588 26.3667 160.355 25.4 164.288 25.4ZM208.527 20.7C205.46 20.7 203.027 19.9333 201.227 18.4C199.493 16.8667 198.627 14.9 198.627 12.5C198.627 10.3667 199.193 8.4 200.327 6.6C201.527 4.73333 203.127 3.26666 205.127 2.2C207.193 1.06666 209.493 0.499994 212.027 0.499994C215.093 0.499994 217.493 1.3 219.227 2.9C221.027 4.43333 221.927 6.43333 221.927 8.9C221.927 11.0333 221.327 13 220.127 14.8C218.993 16.6 217.393 18.0333 215.327 19.1C213.26 20.1667 210.993 20.7 208.527 20.7ZM217.327 25.9L207.427 82H187.727L197.727 25.9H217.327ZM220.288 53.9C221.355 48.0333 223.455 42.9667 226.588 38.7C229.788 34.3667 233.722 31.0333 238.388 28.7C243.122 26.3667 248.255 25.2 253.788 25.2C260.922 25.2 266.588 27.1667 270.788 31.1C274.988 34.9667 277.188 40.4 277.388 47.4H256.488C255.955 43.7333 253.922 41.9 250.388 41.9C247.922 41.9 245.788 42.9333 243.988 45C242.188 47 240.955 49.9667 240.288 53.9C240.022 55.2333 239.888 56.5667 239.888 57.9C239.888 60.5667 240.455 62.6 241.588 64C242.722 65.3333 244.255 66 246.188 66C249.788 66 252.422 64.1667 254.088 60.5H274.988C272.388 67.4333 268.288 72.8667 262.688 76.8C257.155 80.7333 250.788 82.7 243.588 82.7C236.255 82.7 230.422 80.7 226.088 76.7C221.822 72.7 219.688 67.2 219.688 60.2C219.688 58.2 219.888 56.1 220.288 53.9ZM281.03 53.9C282.097 48.1 284.064 43.0333 286.93 38.7C289.797 34.3667 293.23 31.0333 297.23 28.7C301.297 26.3667 305.564 25.2 310.03 25.2C313.897 25.2 317.097 25.9667 319.63 27.5C322.164 29.0333 323.93 31.1 324.93 33.7L326.33 25.9H345.93L336.03 82H316.43L317.83 74.2C315.897 76.8 313.364 78.8667 310.23 80.4C307.097 81.9333 303.63 82.7 299.83 82.7C293.964 82.7 289.264 80.7667 285.73 76.9C282.197 72.9667 280.43 67.6333 280.43 60.9C280.43 58.7 280.63 56.3667 281.03 53.9ZM321.43 53.9C321.63 52.9 321.73 51.9667 321.73 51.1C321.73 48.3 320.93 46.1333 319.33 44.6C317.797 43.0667 315.797 42.3 313.33 42.3C310.397 42.3 307.764 43.3333 305.43 45.4C303.097 47.4 301.63 50.2333 301.03 53.9C300.83 54.9 300.73 55.8667 300.73 56.8C300.73 59.6 301.497 61.7667 303.03 63.3C304.63 64.8333 306.664 65.6 309.13 65.6C312.064 65.6 314.697 64.5667 317.03 62.5C319.364 60.4333 320.83 57.5667 321.43 53.9Z" fill="white"/>
<path d="M413.399 29.8C412.666 33.9333 410.933 37.4 408.199 40.2C405.533 42.9333 402.333 44.8 398.599 45.8C401.999 46.6 404.633 48.2333 406.499 50.7C408.433 53.1667 409.399 56.1 409.399 59.5C409.399 60.5667 409.299 61.6667 409.099 62.8C408.099 68.8 405.233 73.5 400.499 76.9C395.766 80.3 389.633 82 382.099 82H347.199L359.699 11.5H393.499C399.899 11.5 404.866 12.8 408.399 15.4C411.933 17.9333 413.699 21.5667 413.699 26.3C413.699 27.4333 413.599 28.6 413.399 29.8ZM392.699 33.4C392.766 33.0667 392.799 32.5667 392.799 31.9C392.799 28.7 390.699 27.1 386.499 27.1H376.599L374.399 39.6H384.299C389.166 39.6 391.966 37.5333 392.699 33.4ZM389.599 60C389.666 59.6667 389.699 59.2 389.699 58.6C389.699 56.9333 389.133 55.6667 387.999 54.8C386.933 53.8667 385.333 53.4 383.199 53.4H371.899L369.699 66.3H381.099C385.966 66.3 388.799 64.2 389.599 60ZM449.689 25.2C457.022 25.2 462.822 27.1667 467.089 31.1C471.422 35.0333 473.589 40.4 473.589 47.2C473.589 49.4667 473.422 51.4667 473.089 53.2C472.689 55.3333 472.289 56.8667 471.889 57.8H434.789C434.722 58.2 434.689 58.8 434.689 59.6C434.689 62.1333 435.289 64 436.489 65.2C437.756 66.4 439.422 67 441.489 67C444.756 67 447.356 65.5333 449.289 62.6H470.089C468.556 66.4667 466.256 69.9333 463.189 73C460.189 76 456.622 78.3667 452.489 80.1C448.422 81.8333 444.089 82.7 439.489 82.7C432.156 82.7 426.322 80.7 421.989 76.7C417.656 72.7 415.489 67.2 415.489 60.2C415.489 58.2 415.689 56.1 416.089 53.9C417.156 48.0333 419.256 42.9667 422.389 38.7C425.589 34.3667 429.522 31.0333 434.189 28.7C438.922 26.3667 444.089 25.2 449.689 25.2ZM453.789 49C453.922 48.0667 453.989 47.4667 453.989 47.2C453.989 45.0667 453.322 43.4667 451.989 42.4C450.656 41.2667 448.922 40.7 446.789 40.7C444.322 40.7 442.189 41.4 440.389 42.8C438.589 44.2 437.256 46.2667 436.389 49H453.789ZM502.41 61C502.343 61.3333 502.31 61.7333 502.31 62.2C502.31 63.2667 502.61 64.0667 503.21 64.6C503.877 65.0667 504.943 65.3 506.41 65.3H512.11L509.11 82H500.51C488.31 82 482.21 76.8667 482.21 66.6C482.21 64.8667 482.41 62.9 482.81 60.7L486.11 42.2H479.21L482.11 25.9H489.01L491.41 12.3H511.11L508.71 25.9H518.81L515.91 42.2H505.81L502.41 61Z" fill="#008AFC"/>
</svg>
