<svg width="1313" height="1290" viewBox="0 0 1313 1290" fill="none" xmlns="http://www.w3.org/2000/svg">
<ellipse cx="615.5" cy="648" rx="561.5" ry="600" fill="#E4AF18"/>
<ellipse cx="717.5" cy="648" rx="561.5" ry="600" fill="#FCC62D"/>
<ellipse cx="1120.33" cy="288.5" rx="16.3259" ry="17.5" fill="#FFD949"/>
<path d="M978.406 363H763.837V577H978.406V363Z" fill="#E4AF18"/>
<path d="M1121.14 444C1114.3 485.333 1098.13 520 1072.63 548C1047.75 575.333 1017.9 594 983.07 604C1014.79 612 1039.36 628.333 1056.77 653C1074.81 677.667 1083.82 707 1083.82 741C1083.82 751.667 1082.89 762.667 1081.03 774C1071.7 834 1044.95 881 1000.8 915C956.638 949 899.419 966 829.141 966H503.556L620.169 261H935.492C995.198 261 1041.53 274 1074.5 300C1107.46 325.333 1123.94 361.667 1123.94 409C1123.94 420.333 1123.01 432 1121.14 444ZM928.029 480C928.651 476.667 928.962 471.667 928.962 465C928.962 433 909.371 417 870.188 417H777.831L757.307 542H849.665C895.066 542 921.188 521.333 928.029 480ZM899.109 746C899.731 742.667 900.042 738 900.042 732C900.042 715.333 894.755 702.667 884.182 694C874.231 684.667 859.304 680 839.403 680H733.984L713.46 809H819.811C865.213 809 891.645 788 899.109 746Z" fill="#E4AF18"/>
<path d="M743.313 851H510.086L455.978 966H263.799L619.236 261H830.074L953.217 966H760.105L743.313 851ZM721.856 702L689.204 473L580.987 702H721.856Z" fill="#CE9912"/>
<ellipse cx="325.837" cy="305.5" rx="16.3259" ry="17.5" fill="#FFD949"/>
<circle cx="465.5" cy="159.5" r="17.5" fill="#FFD949"/>
<circle cx="988.5" cy="159.5" r="17.5" fill="#FFD949"/>
<circle cx="725.5" cy="99.5" r="17.5" fill="#FFD949"/>
<circle cx="1117.5" cy="1004.5" r="17.5" fill="#FFD949"/>
<circle cx="332.5" cy="1021.5" r="17.5" fill="#FFD949"/>
<circle cx="465.5" cy="1131.5" r="17.5" fill="#FFD949"/>
<circle cx="988.5" cy="1131.5" r="17.5" fill="#FFD949"/>
<circle cx="725.5" cy="1208.5" r="17.5" fill="#FFD949"/>
<circle cx="1239.5" cy="647.5" r="17.5" fill="#FFD949"/>
<circle cx="192.5" cy="665.5" r="17.5" fill="#FFD949"/>
<circle cx="227.5" cy="847.5" r="17.5" fill="#FFD949"/>
<circle cx="1204.5" cy="847.5" r="17.5" fill="#FFD949"/>
<circle cx="227.5" cy="464.5" r="17.5" fill="#FFD949"/>
<circle cx="1204.5" cy="464.5" r="17.5" fill="#FFD949"/>
<path d="M145.5 675.5C145.5 685.165 133.1 693 103 693C72.9005 693 65 685.165 65 675.5C65 675.5 72.9005 658 103 658C133.1 658 145.5 665.835 145.5 675.5Z" fill="#CE9912"/>
<path d="M174.5 457.5C174.5 467.165 162.1 477 132 477C101.9 477 94 469.165 94 459.5C94 459.5 101.9 442 132 442C162.1 442 174.5 447.835 174.5 457.5Z" fill="#CE9912"/>
<path d="M255.408 272.145C255.408 281.81 252.007 289.645 221.908 289.645C191.808 289.645 192.908 281.81 192.908 272.145C192.908 272.145 191.808 254.645 221.908 254.645C252.007 254.645 255.408 262.48 255.408 272.145Z" fill="#CE9912"/>
<path d="M419 123C419 132.665 422.1 140.5 392 140.5C361.9 140.5 369 132.665 369 123C369 123 361.9 111.5 392 111.5C422.1 111.5 419 113.335 419 123Z" fill="#CE9912"/>
<path d="M184 858.5C184 868.165 166.6 876 136.5 876C106.4 876 97.5 868.165 97.5 858.5C97.5 858.5 106.4 841 136.5 841C166.6 841 184 848.835 184 858.5Z" fill="#CE9912"/>
<path d="M289 1052C289 1061.66 281.007 1069.5 250.908 1069.5C220.808 1069.5 214 1061.66 214 1052C214 1052 220.808 1034.5 250.908 1034.5C281.007 1034.5 289 1042.34 289 1052Z" fill="#CE9912"/>
<path d="M414.5 1166.5C414.5 1176.17 416.1 1178.5 386 1178.5C355.9 1178.5 362.5 1176.17 362.5 1166.5C362.5 1166.5 355.9 1154.5 386 1154.5C416.1 1154.5 414.5 1156.83 414.5 1166.5Z" fill="#CE9912"/>
</svg>
