<svg width="924" height="707" viewBox="0 0 924 707" fill="none" xmlns="http://www.w3.org/2000/svg">
<g clip-path="url(#clip0_2_2)">
<rect x="536" y="104" width="230" height="214" fill="#008AFC"/>
<path d="M919 185C911.667 226.333 894.333 261 867 289C840.333 316.333 808.333 335 771 345C805 353 831.333 369.333 850 394C869.333 418.667 879 448 879 482C879 492.667 878 503.667 876 515C866 575 837.333 622 790 656C742.667 690 681.333 707 606 707H257L382 1.99996H720C784 1.99996 833.667 15 869 41C904.333 66.3333 922 102.667 922 150C922 161.333 921 173 919 185ZM712 221C712.667 217.667 713 212.667 713 206C713 174 692 158 650 158H551L529 283H628C676.667 283 704.667 262.333 712 221ZM681 487C681.667 483.667 682 479 682 473C682 456.333 676.333 443.667 665 435C654.333 425.667 638.333 421 617 421H504L482 550H596C644.667 550 673 529 681 487Z" fill="#008AFC"/>
<path d="M514 592H264L206 707H-3.15905e-06L381 1.99996H607L739 707H532L514 592ZM491 443L456 214L340 443H491Z" fill="#003087"/>
</g>
<defs>
<clipPath id="clip0_2_2">
<rect width="924" height="707" fill="white"/>
</clipPath>
</defs>
</svg>
