<svg width="824" height="238" viewBox="0 0 824 238" fill="none" xmlns="http://www.w3.org/2000/svg">
<path d="M350.2 186.5H325.2L319.4 198H298.8L336.9 127.5H359.5L372.7 198H352L350.2 186.5ZM347.9 171.6L344.4 148.7L332.8 171.6H347.9ZM462.288 141.4C468.355 141.4 473.022 143 476.288 146.2C479.622 149.4 481.288 153.833 481.288 159.5C481.288 161.7 481.122 163.633 480.788 165.3L474.988 198H455.488L460.788 167.9C460.922 166.833 460.988 166.1 460.988 165.7C460.988 163.367 460.288 161.567 458.888 160.3C457.555 159.033 455.655 158.4 453.188 158.4C450.522 158.4 448.222 159.133 446.288 160.6C444.422 162 443.155 164 442.488 166.6L436.888 198H417.288L422.588 167.9C422.722 167.367 422.788 166.567 422.788 165.5C422.788 163.233 422.088 161.5 420.688 160.3C419.355 159.033 417.488 158.4 415.088 158.4C412.288 158.4 409.922 159.2 407.988 160.8C406.055 162.333 404.755 164.533 404.088 167.4L398.688 198H378.988L388.988 141.9H408.588L407.288 149.2C409.355 146.8 411.888 144.9 414.888 143.5C417.955 142.1 421.322 141.4 424.988 141.4C429.122 141.4 432.622 142.3 435.488 144.1C438.422 145.9 440.522 148.433 441.788 151.7C444.322 148.633 447.388 146.167 450.988 144.3C454.588 142.367 458.355 141.4 462.288 141.4ZM506.527 136.7C503.46 136.7 501.027 135.933 499.227 134.4C497.493 132.867 496.627 130.9 496.627 128.5C496.627 126.367 497.193 124.4 498.327 122.6C499.527 120.733 501.127 119.267 503.127 118.2C505.193 117.067 507.493 116.5 510.027 116.5C513.093 116.5 515.493 117.3 517.227 118.9C519.027 120.433 519.927 122.433 519.927 124.9C519.927 127.033 519.327 129 518.127 130.8C516.993 132.6 515.393 134.033 513.327 135.1C511.26 136.167 508.993 136.7 506.527 136.7ZM515.327 141.9L505.427 198H485.727L495.727 141.9H515.327ZM518.288 169.9C519.355 164.033 521.455 158.967 524.588 154.7C527.788 150.367 531.722 147.033 536.388 144.7C541.122 142.367 546.255 141.2 551.788 141.2C558.922 141.2 564.588 143.167 568.788 147.1C572.988 150.967 575.188 156.4 575.388 163.4H554.488C553.955 159.733 551.922 157.9 548.388 157.9C545.922 157.9 543.788 158.933 541.988 161C540.188 163 538.955 165.967 538.288 169.9C538.022 171.233 537.888 172.567 537.888 173.9C537.888 176.567 538.455 178.6 539.588 180C540.722 181.333 542.255 182 544.188 182C547.788 182 550.422 180.167 552.088 176.5H572.988C570.388 183.433 566.288 188.867 560.688 192.8C555.155 196.733 548.788 198.7 541.588 198.7C534.255 198.7 528.422 196.7 524.088 192.7C519.822 188.7 517.688 183.2 517.688 176.2C517.688 174.2 517.888 172.1 518.288 169.9ZM579.03 169.9C580.097 164.1 582.064 159.033 584.93 154.7C587.797 150.367 591.23 147.033 595.23 144.7C599.297 142.367 603.564 141.2 608.03 141.2C611.897 141.2 615.097 141.967 617.63 143.5C620.164 145.033 621.93 147.1 622.93 149.7L624.33 141.9H643.93L634.03 198H614.43L615.83 190.2C613.897 192.8 611.364 194.867 608.23 196.4C605.097 197.933 601.63 198.7 597.83 198.7C591.964 198.7 587.264 196.767 583.73 192.9C580.197 188.967 578.43 183.633 578.43 176.9C578.43 174.7 578.63 172.367 579.03 169.9ZM619.43 169.9C619.63 168.9 619.73 167.967 619.73 167.1C619.73 164.3 618.93 162.133 617.33 160.6C615.797 159.067 613.797 158.3 611.33 158.3C608.397 158.3 605.764 159.333 603.43 161.4C601.097 163.4 599.63 166.233 599.03 169.9C598.83 170.9 598.73 171.867 598.73 172.8C598.73 175.6 599.497 177.767 601.03 179.3C602.63 180.833 604.664 181.6 607.13 181.6C610.064 181.6 612.697 180.567 615.03 178.5C617.364 176.433 618.83 173.567 619.43 169.9Z" fill="#003087"/>
<path d="M711.399 145.8C710.666 149.933 708.933 153.4 706.199 156.2C703.533 158.933 700.333 160.8 696.599 161.8C699.999 162.6 702.633 164.233 704.499 166.7C706.433 169.167 707.399 172.1 707.399 175.5C707.399 176.567 707.299 177.667 707.099 178.8C706.099 184.8 703.233 189.5 698.499 192.9C693.766 196.3 687.633 198 680.099 198H645.199L657.699 127.5H691.499C697.899 127.5 702.866 128.8 706.399 131.4C709.933 133.933 711.699 137.567 711.699 142.3C711.699 143.433 711.599 144.6 711.399 145.8ZM690.699 149.4C690.766 149.067 690.799 148.567 690.799 147.9C690.799 144.7 688.699 143.1 684.499 143.1H674.599L672.399 155.6H682.299C687.166 155.6 689.966 153.533 690.699 149.4ZM687.599 176C687.666 175.667 687.699 175.2 687.699 174.6C687.699 172.933 687.133 171.667 685.999 170.8C684.933 169.867 683.333 169.4 681.199 169.4H669.899L667.699 182.3H679.099C683.966 182.3 686.799 180.2 687.599 176ZM747.689 141.2C755.022 141.2 760.822 143.167 765.089 147.1C769.422 151.033 771.589 156.4 771.589 163.2C771.589 165.467 771.422 167.467 771.089 169.2C770.689 171.333 770.289 172.867 769.889 173.8H732.789C732.722 174.2 732.689 174.8 732.689 175.6C732.689 178.133 733.289 180 734.489 181.2C735.756 182.4 737.422 183 739.489 183C742.756 183 745.356 181.533 747.289 178.6H768.089C766.556 182.467 764.256 185.933 761.189 189C758.189 192 754.622 194.367 750.489 196.1C746.422 197.833 742.089 198.7 737.489 198.7C730.156 198.7 724.322 196.7 719.989 192.7C715.656 188.7 713.489 183.2 713.489 176.2C713.489 174.2 713.689 172.1 714.089 169.9C715.156 164.033 717.256 158.967 720.389 154.7C723.589 150.367 727.522 147.033 732.189 144.7C736.922 142.367 742.089 141.2 747.689 141.2ZM751.789 165C751.922 164.067 751.989 163.467 751.989 163.2C751.989 161.067 751.322 159.467 749.989 158.4C748.656 157.267 746.922 156.7 744.789 156.7C742.322 156.7 740.189 157.4 738.389 158.8C736.589 160.2 735.256 162.267 734.389 165H751.789ZM800.41 177C800.343 177.333 800.31 177.733 800.31 178.2C800.31 179.267 800.61 180.067 801.21 180.6C801.877 181.067 802.943 181.3 804.41 181.3H810.11L807.11 198H798.51C786.31 198 780.21 192.867 780.21 182.6C780.21 180.867 780.41 178.9 780.81 176.7L784.11 158.2H777.21L780.11 141.9H787.01L789.41 128.3H809.11L806.71 141.9H816.81L813.91 158.2H803.81L800.41 177Z" fill="#008AFC"/>
<path d="M250.601 36.2386H175.649V106.104H250.601V36.2386Z" fill="#008AFC"/>
<path d="M300.46 62.6831C298.07 76.1773 292.422 87.4952 283.514 96.6365C274.824 105.56 264.396 111.654 252.23 114.919C263.31 117.531 271.891 122.863 277.975 130.916C284.275 138.969 287.425 148.546 287.425 159.646C287.425 163.129 287.099 166.72 286.447 170.42C283.189 190.008 273.847 205.353 258.422 216.453C242.997 227.553 223.01 233.103 198.46 233.103H84.7285L125.463 2.93823H235.61C256.467 2.93823 272.652 7.18241 284.166 15.6708C295.68 23.9414 301.438 35.8035 301.438 51.2565C301.438 54.9564 301.112 58.7654 300.46 62.6831ZM233.003 74.4362C233.221 73.348 233.329 71.7157 233.329 69.5391C233.329 59.0919 226.486 53.8683 212.799 53.8683H180.537L173.367 94.6776H205.629C221.489 94.6776 230.614 87.9304 233.003 74.4362ZM222.901 161.278C223.118 160.19 223.227 158.667 223.227 156.708C223.227 151.266 221.38 147.131 217.687 144.302C214.211 141.255 208.997 139.731 202.045 139.731H165.221L158.051 181.846H195.201C211.061 181.846 220.294 174.99 222.901 161.278Z" fill="#008AFC"/>
<path d="M168.479 195.558H87.0096L68.1086 233.103H0.977661L125.137 2.93823H198.786L241.802 233.103H174.345L168.479 195.558ZM160.984 146.914L149.578 72.1509L111.776 146.914H160.984Z" fill="#003087"/>
</svg>
